REM DIRINDEX 1\2\6,1\2\7,1\2\8,1\3\9,1\3\10,1\3\11,1\4\12,1\4\13,1\4\14,1\5\15,1\5\16,1\5\17,1\5\18
REM DIRNAME folder01,folder02,folder03,folder04,folder05,folder06,folder07,folder08,folder09,folder10,folder11,folder12,folder13,folder14,folder15,folder16,folder17,folder18
TITLE ""
FILE "" MP3
  TRACK 01 AUDIO
    TITLE "16:cjc019_6637"
    INDEX 01 00:00:00
  TRACK 02 AUDIO
    TITLE "0:"
    INDEX 01 00:01:07
  TRACK 03 AUDIO
    TITLE "18:cjc019_6638"
    INDEX 01 00:01:60
  TRACK 04 AUDIO
    TITLE "0:"
    INDEX 01 00:04:11
  TRACK 05 AUDIO
    TITLE "17:cjc019_6639"
    INDEX 01 00:04:66
  TRACK 06 AUDIO
    TITLE "0:"
    INDEX 01 00:06:08
  TRACK 07 AUDIO
    TITLE "16:cjc019_6640"
    INDEX 01 00:07:66
  TRACK 08 AUDIO
    TITLE "0:"
    INDEX 01 00:09:08
  TRACK 09 AUDIO
    TITLE "18:cjc019_6641"
    INDEX 01 00:09:71
  TRACK 10 AUDIO
    TITLE "0:"
    INDEX 01 00:13:08
  TRACK 11 AUDIO
    TITLE "17:cjc019_6642"
    INDEX 01 00:13:63
  TRACK 12 AUDIO
    TITLE "0:"
    INDEX 01 00:15:05
  TRACK 13 AUDIO
    TITLE "16:cjc019_6643"
    INDEX 01 00:16:61
  TRACK 14 AUDIO
    TITLE "0:"
    INDEX 01 00:17:70
  TRACK 15 AUDIO
    TITLE "18:cjc019_6644"
    INDEX 01 00:18:48
  TRACK 16 AUDIO
    TITLE "0:"
    INDEX 01 00:21:47
  TRACK 17 AUDIO
    TITLE "17:cjc019_6645"
    INDEX 01 00:22:27
  TRACK 18 AUDIO
    TITLE "0:"
    INDEX 01 00:23:38
  TRACK 19 AUDIO
    TITLE "16:cjc019_6646"
    INDEX 01 00:25:21
  TRACK 20 AUDIO
    TITLE "0:"
    INDEX 01 00:26:20
  TRACK 21 AUDIO
    TITLE "18:cjc019_6647"
    INDEX 01 00:26:71
  TRACK 22 AUDIO
    TITLE "0:"
    INDEX 01 00:28:02
  TRACK 23 AUDIO
    TITLE "17:cjc019_6648"
    INDEX 01 00:28:59
  TRACK 24 AUDIO
    TITLE "0:"
    INDEX 01 00:29:58
  TRACK 25 AUDIO
    TITLE "16:cjc019_6649"
    INDEX 01 00:31:49
  TRACK 26 AUDIO
    TITLE "0:"
    INDEX 01 00:32:74
  TRACK 27 AUDIO
    TITLE "18:cjc019_6650"
    INDEX 01 00:33:58
  TRACK 28 AUDIO
    TITLE "0:"
    INDEX 01 00:36:52
  TRACK 29 AUDIO
    TITLE "17:cjc019_6651"
    INDEX 01 00:37:28
  TRACK 30 AUDIO
    TITLE "0:"
    INDEX 01 00:38:45
  TRACK 31 AUDIO
    TITLE "16:cjc019_6652"
    INDEX 01 00:40:26
  TRACK 32 AUDIO
    TITLE "0:"
    INDEX 01 00:41:55
  TRACK 33 AUDIO
    TITLE "18:cjc019_6653"
    INDEX 01 00:42:41
  TRACK 34 AUDIO
    TITLE "0:"
    INDEX 01 00:43:60
  TRACK 35 AUDIO
    TITLE "17:cjc019_6654"
    INDEX 01 00:44:42
  TRACK 36 AUDIO
    TITLE "0:"
    INDEX 01 00:45:71
  TRACK 37 AUDIO
    TITLE "16:cjc019_6655"
    INDEX 01 00:47:52
  TRACK 38 AUDIO
    TITLE "0:"
    INDEX 01 00:49:00
  TRACK 39 AUDIO
    TITLE "18:cjc019_6656"
    INDEX 01 00:49:57
  TRACK 40 AUDIO
    TITLE "0:"
    INDEX 01 00:51:67
  TRACK 41 AUDIO
    TITLE "17:cjc019_6657"
    INDEX 01 00:52:41
  TRACK 42 AUDIO
    TITLE "0:"
    INDEX 01 00:53:64
  TRACK 43 AUDIO
    TITLE "16:cjc019_6658"
    INDEX 01 00:55:40
  TRACK 44 AUDIO
    TITLE "0:"
    INDEX 01 00:56:72
  TRACK 45 AUDIO
    TITLE "18:cjc019_6659"
    INDEX 01 00:57:52
  TRACK 46 AUDIO
    TITLE "0:"
    INDEX 01 00:59:14
  TRACK 47 AUDIO
    TITLE "17:cjc019_6660"
    INDEX 01 00:59:65
  TRACK 48 AUDIO
    TITLE "0:"
    INDEX 01 01:01:21
  TRACK 49 AUDIO
    TITLE "16:cjc019_6661"
    INDEX 01 01:03:00
  TRACK 50 AUDIO
    TITLE "0:"
    INDEX 01 01:04:29
  TRACK 51 AUDIO
    TITLE "18:cjc019_6662"
    INDEX 01 01:05:11
  TRACK 52 AUDIO
    TITLE "0:"
    INDEX 01 01:07:51
  TRACK 53 AUDIO
    TITLE "17:cjc019_6663"
    INDEX 01 01:08:27
  TRACK 54 AUDIO
    TITLE "0:"
    INDEX 01 01:09:57
  TRACK 55 AUDIO
    TITLE "16:cjc019_6664"
    INDEX 01 01:11:39
  TRACK 56 AUDIO
    TITLE "0:"
    INDEX 01 01:12:50
  TRACK 57 AUDIO
    TITLE "18:cjc019_6665"
    INDEX 01 01:13:36
  TRACK 58 AUDIO
    TITLE "0:"
    INDEX 01 01:14:70
  TRACK 59 AUDIO
    TITLE "17:cjc019_6666"
    INDEX 01 01:15:48
  TRACK 60 AUDIO
    TITLE "0:"
    INDEX 01 01:16:71
  TRACK 61 AUDIO
    TITLE "16:cjc019_6667"
    INDEX 01 01:18:51
  TRACK 62 AUDIO
    TITLE "0:"
    INDEX 01 01:20:00
  TRACK 63 AUDIO
    TITLE "18:cjc019_6668"
    INDEX 01 01:20:59
  TRACK 64 AUDIO
    TITLE "0:"
    INDEX 01 01:21:65
  TRACK 65 AUDIO
    TITLE "17:cjc019_6669"
    INDEX 01 01:22:48
  TRACK 66 AUDIO
    TITLE "0:"
    INDEX 01 01:24:08
  TRACK 67 AUDIO
    TITLE "16:cjc019_6670"
    INDEX 01 01:25:66
  TRACK 68 AUDIO
    TITLE "0:"
    INDEX 01 01:27:12
  TRACK 69 AUDIO
    TITLE "18:cjc019_6671"
    INDEX 01 01:28:00
  TRACK 70 AUDIO
    TITLE "0:"
    INDEX 01 01:30:44
  TRACK 71 AUDIO
    TITLE "17:cjc019_6672"
    INDEX 01 01:31:26
  TRACK 72 AUDIO
    TITLE "0:"
    INDEX 01 01:32:51
  TRACK 73 AUDIO
    TITLE "16:cjc019_6673"
    INDEX 01 01:34:44
  TRACK 74 AUDIO
    TITLE "0:"
    INDEX 01 01:35:63
  TRACK 75 AUDIO
    TITLE "18:cjc019_6674"
    INDEX 01 01:36:48
  TRACK 76 AUDIO
    TITLE "0:"
    INDEX 01 01:39:00
  TRACK 77 AUDIO
    TITLE "17:cjc019_6675"
    INDEX 01 01:39:51
  TRACK 78 AUDIO
    TITLE "0:"
    INDEX 01 01:40:70
  TRACK 79 AUDIO
    TITLE "16:cjc019_6676"
    INDEX 01 01:42:57
  TRACK 80 AUDIO
    TITLE "0:"
    INDEX 01 01:44:19
  TRACK 81 AUDIO
    TITLE "18:cjc019_6677"
    INDEX 01 01:45:00
  TRACK 82 AUDIO
    TITLE "0:"
    INDEX 01 01:47:54
  TRACK 83 AUDIO
    TITLE "17:cjc019_6678"
    INDEX 01 01:48:22
  TRACK 84 AUDIO
    TITLE "0:"
    INDEX 01 01:49:71
  TRACK 85 AUDIO
    TITLE "16:cjc019_6679"
    INDEX 01 01:51:52
  TRACK 86 AUDIO
    TITLE "0:"
    INDEX 01 01:52:71
  TRACK 87 AUDIO
    TITLE "18:cjc019_6680"
    INDEX 01 01:53:51
  TRACK 88 AUDIO
    TITLE "0:"
    INDEX 01 01:55:18
  TRACK 89 AUDIO
    TITLE "17:cjc019_6681"
    INDEX 01 01:55:71
  TRACK 90 AUDIO
    TITLE "0:"
    INDEX 01 01:57:15
  TRACK 91 AUDIO
    TITLE "16:cjc019_6682"
    INDEX 01 01:58:74
  TRACK 92 AUDIO
    TITLE "0:"
    INDEX 01 02:00:29
  TRACK 93 AUDIO
    TITLE "18:cjc019_6683"
    INDEX 01 02:01:15
  TRACK 94 AUDIO
    TITLE "0:"
    INDEX 01 02:04:25
  TRACK 95 AUDIO
    TITLE "17:cjc019_6684"
    INDEX 01 02:05:11
  TRACK 96 AUDIO
    TITLE "0:"
    INDEX 01 02:06:46
  TRACK 97 AUDIO
    TITLE "16:cjc019_6685"
    INDEX 01 02:08:29
  TRACK 98 AUDIO
    TITLE "0:"
    INDEX 01 02:10:06
  TRACK 99 AUDIO
    TITLE "18:cjc019_6686"
    INDEX 01 02:10:65
  TRACK 100 AUDIO
    TITLE "0:"
    INDEX 01 02:13:56
  TRACK 101 AUDIO
    TITLE "17:cjc019_6687"
    INDEX 01 02:14:35
  TRACK 102 AUDIO
    TITLE "0:"
    INDEX 01 02:16:13
  TRACK 103 AUDIO
    TITLE "16:cjc019_6688"
    INDEX 01 02:18:00
  TRACK 104 AUDIO
    TITLE "0:"
    INDEX 01 02:19:33
  TRACK 105 AUDIO
    TITLE "18:cjc019_6689"
    INDEX 01 02:20:16
  TRACK 106 AUDIO
    TITLE "0:"
    INDEX 01 02:21:24
  TRACK 107 AUDIO
    TITLE "17:cjc019_6690"
    INDEX 01 02:22:09
  TRACK 108 AUDIO
    TITLE "0:"
    INDEX 01 02:23:48
